<?xml version="1.0"?>
<svg xmlns="http://www.w3.org/2000/svg" xmlns:xlink="http://www.w3.org/1999/xlink" xmlns:svgjs="http://svgjs.com/svgjs" version="1.1" width="512" height="512" x="0" y="0" viewBox="0 0 128 128" style="enable-background:new 0 0 512 512" xml:space="preserve" class=""><g><g xmlns="http://www.w3.org/2000/svg" id="Circle_Grid" data-name="Circle Grid"><circle cx="64" cy="64" fill="#43b581" r="64" data-original="#3b5059" style="" class=""/></g><g xmlns="http://www.w3.org/2000/svg" id="icon"><path d="m38.44 62.81-10.4-10.4a17.232 17.232 0 0 1 24.37-24.37l10.4 10.4a17.232 17.232 0 0 1 -24.37 24.37zm7.879-29.25a9.022 9.022 0 0 0 -12.759 12.759l10.969 10.969a9.022 9.022 0 0 0 12.759-12.759z" fill="#eeefee" data-original="#eeefee" style="" class=""/><path d="m75.592 99.962-10.4-10.4a17.232 17.232 0 0 1 24.368-24.372l10.4 10.4a17.232 17.232 0 0 1 -24.37 24.37zm7.879-29.25a9.022 9.022 0 0 0 -12.759 12.759l10.969 10.969a9.022 9.022 0 0 0 12.759-12.759z" fill="#eeefee" data-original="#eeefee" style="" class=""/><path d="m71.61 77.318-20.928-20.928a4.036 4.036 0 0 1 5.708-5.708l20.928 20.928a4.036 4.036 0 0 1 -5.708 5.708z" fill="#dbd8dd" data-original="#dbd8dd" style="" class=""/></g></g></svg>
